<?xml version="1.0" encoding="UTF-8" standalone="no"?>
<!DOCTYPE svg PUBLIC "-//W3C//DTD SVG 1.1//EN" "http://www.w3.org/Graphics/SVG/1.1/DTD/svg11.dtd">
<svg width="100%" height="100%" viewBox="0 0 343 54" version="1.1" xmlns="http://www.w3.org/2000/svg" xmlns:xlink="http://www.w3.org/1999/xlink" xml:space="preserve" xmlns:serif="http://www.serif.com/" style="fill-rule:evenodd;clip-rule:evenodd;stroke-linejoin:round;stroke-miterlimit:2;">
    <g transform="matrix(1,0,0,1,-203,-691)">
        <g id="alley-template-real-estates-vertical-logo" transform="matrix(1,0,0,1,-562.478,437.537)">
            <g transform="matrix(1.38158,0,0,1.38158,-147.976,-329.14)">
                <path d="M732.783,460.188L731.427,460.188L731.427,451.812L735.039,451.812C735.791,451.812 736.383,452.038 736.815,452.49C737.247,452.942 737.463,453.556 737.463,454.332C737.463,454.932 737.325,455.43 737.049,455.826C736.773,456.222 736.367,456.5 735.831,456.66L737.643,460.188L736.131,460.188L734.451,456.804L732.783,456.804L732.783,460.188ZM734.943,455.664C735.287,455.664 735.555,455.574 735.747,455.394C735.939,455.214 736.035,454.956 736.035,454.62L736.035,454.044C736.035,453.708 735.939,453.45 735.747,453.27C735.555,453.09 735.287,453 734.943,453L732.783,453L732.783,455.664L734.943,455.664Z" style="fill:white;fill-rule:nonzero;"/>
                <path d="M742.887,460.188L742.887,451.812L748.251,451.812L748.251,453.012L744.243,453.012L744.243,455.34L747.879,455.34L747.879,456.54L744.243,456.54L744.243,458.988L748.251,458.988L748.251,460.188L742.887,460.188Z" style="fill:white;fill-rule:nonzero;"/>
                <path d="M758.835,460.188L758.079,457.92L754.947,457.92L754.215,460.188L752.835,460.188L755.691,451.812L757.395,451.812L760.251,460.188L758.835,460.188ZM756.543,453.06L756.483,453.06L755.271,456.756L757.743,456.756L756.543,453.06Z" style="fill:white;fill-rule:nonzero;"/>
                <path d="M765.147,460.188L765.147,451.812L766.503,451.812L766.503,458.988L769.911,458.988L769.911,460.188L765.147,460.188Z" style="fill:white;fill-rule:nonzero;"/>
                <path d="M781.335,460.188L781.335,451.812L786.699,451.812L786.699,453.012L782.691,453.012L782.691,455.34L786.327,455.34L786.327,456.54L782.691,456.54L782.691,458.988L786.699,458.988L786.699,460.188L781.335,460.188Z" style="fill:white;fill-rule:nonzero;"/>
                <path d="M794.559,460.332C793.855,460.332 793.257,460.204 792.765,459.948C792.273,459.692 791.851,459.348 791.499,458.916L792.435,458.04C792.731,458.4 793.057,458.672 793.413,458.856C793.769,459.04 794.175,459.132 794.631,459.132C795.167,459.132 795.571,459.012 795.843,458.772C796.115,458.532 796.251,458.208 796.251,457.8C796.251,457.472 796.155,457.212 795.963,457.02C795.771,456.828 795.431,456.684 794.943,456.588L794.199,456.456C793.383,456.304 792.771,456.036 792.363,455.652C791.955,455.268 791.751,454.74 791.751,454.068C791.751,453.7 791.821,453.366 791.961,453.066C792.101,452.766 792.297,452.514 792.549,452.31C792.801,452.106 793.107,451.948 793.467,451.836C793.827,451.724 794.231,451.668 794.679,451.668C795.311,451.668 795.859,451.778 796.323,451.998C796.787,452.218 797.183,452.536 797.511,452.952L796.563,453.792C796.347,453.512 796.083,453.288 795.771,453.12C795.459,452.952 795.071,452.868 794.607,452.868C794.127,452.868 793.755,452.964 793.491,453.156C793.227,453.348 793.095,453.628 793.095,453.996C793.095,454.348 793.203,454.61 793.419,454.782C793.635,454.954 793.971,455.084 794.427,455.172L795.171,455.328C796.011,455.488 796.625,455.76 797.013,456.144C797.401,456.528 797.595,457.056 797.595,457.728C797.595,458.12 797.527,458.476 797.391,458.796C797.255,459.116 797.057,459.39 796.797,459.618C796.537,459.846 796.219,460.022 795.843,460.146C795.467,460.27 795.039,460.332 794.559,460.332Z" style="fill:white;fill-rule:nonzero;"/>
                <path d="M805.731,453.012L805.731,460.188L804.375,460.188L804.375,453.012L801.879,453.012L801.879,451.812L808.227,451.812L808.227,453.012L805.731,453.012Z" style="fill:white;fill-rule:nonzero;"/>
                <path d="M817.599,460.188L816.843,457.92L813.711,457.92L812.979,460.188L811.599,460.188L814.455,451.812L816.159,451.812L819.015,460.188L817.599,460.188ZM815.307,453.06L815.247,453.06L814.035,456.756L816.507,456.756L815.307,453.06Z" style="fill:white;fill-rule:nonzero;"/>
                <path d="M826.239,453.012L826.239,460.188L824.883,460.188L824.883,453.012L822.387,453.012L822.387,451.812L828.735,451.812L828.735,453.012L826.239,453.012Z" style="fill:white;fill-rule:nonzero;"/>
                <path d="M833.655,460.188L833.655,451.812L839.019,451.812L839.019,453.012L835.011,453.012L835.011,455.34L838.647,455.34L838.647,456.54L835.011,456.54L835.011,458.988L839.019,458.988L839.019,460.188L833.655,460.188Z" style="fill:white;fill-rule:nonzero;"/>
            </g>
            <g transform="matrix(2.91701,0,0,2.91701,-1400.86,-1064.34)">
                <path d="M748.827,460.188L748.155,458.052L745.179,458.052L744.519,460.188L742.911,460.188L745.719,451.812L747.687,451.812L750.471,460.188L748.827,460.188ZM746.691,453.252L746.631,453.252L745.563,456.696L747.771,456.696L746.691,453.252Z" style="fill:white;fill-rule:nonzero;"/>
                <path d="M753.267,460.188L753.267,451.812L754.851,451.812L754.851,458.784L758.151,458.784L758.151,460.188L753.267,460.188Z" style="fill:white;fill-rule:nonzero;"/>
                <path d="M761.079,460.188L761.079,451.812L762.663,451.812L762.663,458.784L765.963,458.784L765.963,460.188L761.079,460.188Z" style="fill:white;fill-rule:nonzero;"/>
                <path d="M768.891,460.188L768.891,451.812L774.411,451.812L774.411,453.216L770.475,453.216L770.475,455.244L773.955,455.244L773.955,456.648L770.475,456.648L770.475,458.784L774.411,458.784L774.411,460.188L768.891,460.188Z" style="fill:white;fill-rule:nonzero;"/>
                <path d="M779.583,460.188L779.583,456.9L776.715,451.812L778.491,451.812L780.423,455.352L780.447,455.352L782.331,451.812L784.059,451.812L781.179,456.888L781.179,460.188L779.583,460.188Z" style="fill:white;fill-rule:nonzero;"/>
                <path d="M794.403,453.216L794.403,460.188L792.819,460.188L792.819,453.216L790.443,453.216L790.443,451.812L796.779,451.812L796.779,453.216L794.403,453.216Z" style="fill:white;fill-rule:nonzero;"/>
                <path d="M799.635,460.188L799.635,451.812L805.155,451.812L805.155,453.216L801.219,453.216L801.219,455.244L804.699,455.244L804.699,456.648L801.219,456.648L801.219,458.784L805.155,458.784L805.155,460.188L799.635,460.188Z" style="fill:white;fill-rule:nonzero;"/>
                <path d="M814.719,454.176L814.671,454.176L814.023,455.508L812.307,458.676L810.591,455.508L809.943,454.176L809.895,454.176L809.895,460.188L808.395,460.188L808.395,451.812L810.183,451.812L812.331,455.904L812.379,455.904L814.503,451.812L816.219,451.812L816.219,460.188L814.719,460.188L814.719,454.176Z" style="fill:white;fill-rule:nonzero;"/>
                <path d="M819.747,460.188L819.747,451.812L823.515,451.812C823.899,451.812 824.245,451.874 824.553,451.998C824.861,452.122 825.123,452.298 825.339,452.526C825.555,452.754 825.719,453.028 825.831,453.348C825.943,453.668 825.999,454.02 825.999,454.404C825.999,454.796 825.943,455.15 825.831,455.466C825.719,455.782 825.555,456.054 825.339,456.282C825.123,456.51 824.861,456.686 824.553,456.81C824.245,456.934 823.899,456.996 823.515,456.996L821.331,456.996L821.331,460.188L819.747,460.188ZM821.331,455.628L823.371,455.628C823.675,455.628 823.915,455.546 824.091,455.382C824.267,455.218 824.355,454.984 824.355,454.68L824.355,454.128C824.355,453.824 824.267,453.592 824.091,453.432C823.915,453.272 823.675,453.192 823.371,453.192L821.331,453.192L821.331,455.628Z" style="fill:white;fill-rule:nonzero;"/>
                <path d="M828.999,460.188L828.999,451.812L830.583,451.812L830.583,458.784L833.883,458.784L833.883,460.188L828.999,460.188Z" style="fill:white;fill-rule:nonzero;"/>
                <path d="M842.211,460.188L841.539,458.052L838.563,458.052L837.903,460.188L836.295,460.188L839.103,451.812L841.071,451.812L843.855,460.188L842.211,460.188ZM840.075,453.252L840.015,453.252L838.947,456.696L841.155,456.696L840.075,453.252Z" style="fill:white;fill-rule:nonzero;"/>
                <path d="M849.159,453.216L849.159,460.188L847.575,460.188L847.575,453.216L845.199,453.216L845.199,451.812L851.535,451.812L851.535,453.216L849.159,453.216Z" style="fill:white;fill-rule:nonzero;"/>
                <path d="M854.391,460.188L854.391,451.812L859.911,451.812L859.911,453.216L855.975,453.216L855.975,455.244L859.455,455.244L859.455,456.648L855.975,456.648L855.975,458.784L859.911,458.784L859.911,460.188L854.391,460.188Z" style="fill:white;fill-rule:nonzero;"/>
            </g>
        </g>
    </g>
</svg>
